<?xml version="1.0"?>
<svg xmlns="http://www.w3.org/2000/svg" viewBox="0 0 64 64" width="512" height="512"><g id="outline"><rect x="54" y="51" width="4" height="2"/><rect x="44" y="51" width="4" height="2"/><path d="M59.5,45.04a3.019,3.019,0,0,0-2.439.674c-.02.016-.04.033-.059.051a2.994,2.994,0,0,0-4,0,2.994,2.994,0,0,0-4,0,2.992,2.992,0,0,0-1.495-.719l1.481-8.883A1,1,0,0,0,48,35H47V26h2a5.006,5.006,0,0,0,5-5V19a5.006,5.006,0,0,0-5-5H42a1,1,0,0,0-1,1V35H39V8a3.017,3.017,0,0,0-3-3,3,3,0,0,0-3,3V26H30a1,1,0,0,0-1,1v3.9L28.18,35h-.313L27,28.93V27.094A3.1,3.1,0,0,0,23.906,24H20a1,1,0,0,0-1,1v4a1,1,0,0,0,1,1h1.847l-.714,5H18a1,1,0,0,0-.986,1.164L18.7,46.287l-4.994-4.994A1,1,0,0,0,13,41H6a1,1,0,0,0-1,1v4a1,1,0,0,0,1,1h4.586l2,2H3a1,1,0,0,0-1,1v8a1,1,0,0,0,1,1H21a1,1,0,0,0,1-1V55H40v1a3,3,0,0,0,3,3H59a3,3,0,0,0,3-3V48.107A3.084,3.084,0,0,0,59.5,45.04ZM47,16h2a2.985,2.985,0,0,1,2.22,1H49v2h3v2H49v2h2.22A2.985,2.985,0,0,1,49,24H47Zm-4,0h2V35H43ZM35,8a1,1,0,0,1,1-1,.978.978,0,0,1,.712.306A.957.957,0,0,1,37,8V35H35.82L35,30.9ZM31,28h2v2H31Zm-.18,4h2.36l.6,3H30.22Zm-4.973,3H23.153l.714-5h1.266ZM21,28V26h2.906A1.1,1.1,0,0,1,25,27.094V28ZM11.707,45.293A1,1,0,0,0,11,45H7V43h5.586l6,6H15.414ZM7,57H4V55H7Zm4,0H9V55h2Zm5,0H13V55h3Zm4,0H18V55h2Zm0-4H4V51H20Zm20-4.551V53H22V50a.994.994,0,0,0-.294-.708l-.572-.572L19.181,37H46.819l-1.413,8.469a3.119,3.119,0,0,0-.316.219,2.4,2.4,0,0,0-.211-.179,2.7,2.7,0,0,0-2.42-.384A3.575,3.575,0,0,0,40,48.449ZM60,56a1,1,0,0,1-1,1H43a1,1,0,0,1-1-1V48.449a1.622,1.622,0,0,1,1-1.4A1.209,1.209,0,0,1,43.326,47a.547.547,0,0,1,.345.1A1.138,1.138,0,0,1,44,48a1,1,0,0,0,2,0,1,1,0,0,1,2,0,1,1,0,0,0,2,0,1,1,0,0,1,2,0,1,1,0,0,0,2,0,1,1,0,0,1,2,0,1,1,0,0,0,2,0,1,1,0,0,1,1.175-.985A1.083,1.083,0,0,1,60,48.107Z"/></g></svg>
